<svg xmlns:xlink="http://www.w3.org/1999/xlink" xmlns="http://www.w3.org/2000/svg" aria-hidden="true" class="button__icon-boxes ml-10" width="25"  height="25" ><defs><symbol preserveAspectRatio="xMidYMid" class="svg-sprite" id="instagram" viewBox="0 0 25 25"><title>instagram</title><path d="M12.5 2.292c3.333 0 3.75 0 5.104.104 3.438.104 5 1.77 5.104 5.104.105 1.354.105 1.667.105 5s0 3.75-.105 5c-.104 3.333-1.77 5-5.104 5.104-1.354.104-1.666.104-5.104.104-3.333 0-3.75 0-5-.104-3.438-.104-5-1.77-5.104-5.104-.104-1.354-.104-1.667-.104-5s0-3.75.104-5c.104-3.333 1.77-5 5.104-5.104 1.25-.104 1.667-.104 5-.104ZM12.5 0C9.062 0 8.646 0 7.396.104 2.813.312.313 2.812.104 7.396 0 8.646 0 9.063 0 12.5c0 3.438 0 3.854.104 5.104.208 4.584 2.708 7.084 7.292 7.292C8.646 25 9.063 25 12.5 25c3.438 0 3.854 0 5.104-.104 4.584-.209 7.084-2.709 7.292-7.292C25 16.354 25 15.938 25 12.5s0-3.854-.104-5.104C24.687 2.813 22.187.313 17.604.104 16.354 0 15.938 0 12.5 0Zm0 6.042c-3.542 0-6.458 2.916-6.458 6.458 0 3.542 2.916 6.458 6.458 6.458 3.542 0 6.458-2.916 6.458-6.458 0-3.542-2.916-6.458-6.458-6.458Zm0 10.625A4.179 4.179 0 0 1 8.333 12.5 4.179 4.179 0 0 1 12.5 8.333a4.179 4.179 0 0 1 4.167 4.167 4.179 4.179 0 0 1-4.167 4.167Zm6.667-12.292c-.834 0-1.459.625-1.459 1.458 0 .834.625 1.459 1.459 1.459.833 0 1.458-.625 1.458-1.459 0-.833-.625-1.458-1.458-1.458Z"></path></symbol></defs>
<use xlink:href="#instagram"></use>
</svg>