<svg xmlns:xlink="http://www.w3.org/1999/xlink" xmlns="http://www.w3.org/2000/svg" aria-hidden="true" class="button__icon-boxes ml-10" width="22"  height="22" ><defs><symbol preserveAspectRatio="xMidYMid" class="svg-sprite" id="reddit" viewBox="0 0 22 22"><title>reddit</title><path fill-rule="evenodd" clip-rule="evenodd" d="M22 11c0 6.075-4.925 11-11 11S0 17.075 0 11 4.925 0 11 0s11 4.925 11 11Zm-5.275-1.608c.888 0 1.608.72 1.608 1.608 0 .656-.398 1.222-.926 1.48.026.154.039.308.039.476 0 2.47-2.87 4.464-6.42 4.464-3.551 0-6.42-1.994-6.42-4.465 0-.167.013-.334.038-.488A1.609 1.609 0 0 1 5.3 9.392c.425 0 .824.18 1.107.45 1.106-.81 2.637-1.312 4.349-1.364l.81-3.834a.313.313 0 0 1 .129-.18.32.32 0 0 1 .219-.038l2.663.566c.18-.386.566-.643 1.016-.643.63 0 1.145.514 1.145 1.145a1.146 1.146 0 0 1-2.29.051l-2.38-.502-.733 3.435c1.672.065 3.19.58 4.284 1.364.283-.283.669-.45 1.106-.45ZM8.478 11c-.63 0-1.145.515-1.145 1.145s.515 1.145 1.145 1.145 1.145-.515 1.145-1.145S9.11 11 8.478 11Zm2.535 5.005c.437 0 1.93-.052 2.714-.837a.331.331 0 0 0 .026-.424.303.303 0 0 0-.424 0c-.502.489-1.544.669-2.303.669-.76 0-1.814-.18-2.303-.67a.303.303 0 0 0-.425 0 .303.303 0 0 0 0 .425c.772.772 2.277.837 2.715.837Zm1.364-3.86c0 .63.514 1.145 1.145 1.145.63 0 1.145-.515 1.145-1.145S14.152 11 13.522 11s-1.145.515-1.145 1.145Z"></path></symbol></defs>
<use xlink:href="#reddit"></use>
</svg>