<svg xmlns:xlink="http://www.w3.org/1999/xlink" xmlns="http://www.w3.org/2000/svg" aria-hidden="true" class="button__icon-boxes ml-10" width="22"  height="19" ><defs><symbol preserveAspectRatio="xMidYMid" class="svg-sprite" id="twitter" viewBox="0 0 22 19"><title>twitter</title><path d="M6.922 18.227c8.3 0 12.84-6.925 12.84-12.93 0-.194-.004-.393-.012-.588A9.202 9.202 0 0 0 22 2.356a8.851 8.851 0 0 1-2.59.714A4.564 4.564 0 0 0 21.394.557 9.035 9.035 0 0 1 18.53 1.66a4.492 4.492 0 0 0-5.423-.894 4.538 4.538 0 0 0-1.983 2.131 4.58 4.58 0 0 0-.289 2.907 12.75 12.75 0 0 1-5.15-1.378 12.836 12.836 0 0 1-4.15-3.367 4.577 4.577 0 0 0-.494 3.31 4.55 4.55 0 0 0 1.89 2.754 4.495 4.495 0 0 1-2.045-.566v.056c0 1.05.36 2.067 1.02 2.88.66.812 1.58 1.37 2.602 1.576a4.453 4.453 0 0 1-2.037.078c.289.903.85 1.693 1.605 2.259.756.566 1.668.88 2.61.9A9.013 9.013 0 0 1 0 16.186a12.74 12.74 0 0 0 6.92 2.041Z"></path></symbol></defs>
<use xlink:href="#twitter"></use>
</svg>